<?xml version="1.0" encoding="UTF-8" standalone="no"?>
<!DOCTYPE svg PUBLIC "-//W3C//DTD SVG 1.1//EN"
 "http://www.w3.org/Graphics/SVG/1.1/DTD/svg11.dtd">
<!-- Generated by graphviz version 2.40.1 (20161225.0304)
 -->
<!-- Title: %3 Pages: 1 -->
<svg width="174pt" height="566pt"
 viewBox="0.00 0.00 173.50 566.00" xmlns="http://www.w3.org/2000/svg" xmlns:xlink="http://www.w3.org/1999/xlink">
<g id="graph0" class="graph" transform="scale(1 1) rotate(0) translate(4 562)">
<title>%3</title>
<polygon fill="#ffffff" stroke="transparent" points="-4,4 -4,-562 169.5,-562 169.5,4 -4,4"/>
<!-- Validate Module -->
<g id="node1" class="node">
<title>Validate Module</title>
<polygon fill="none" stroke="#000000" stroke-dasharray="1,5" points="116,-210 7,-210 7,-174 116,-174 116,-210"/>
<text text-anchor="middle" x="61.5" y="-188.3" font-family="Times,serif" font-size="14.00" fill="#000000">Validate Module</text>
</g>
<!-- Code generate -->
<g id="node7" class="node">
<title>Code generate</title>
<polygon fill="none" stroke="#000000" points="109,-123 14,-123 14,-87 109,-87 109,-123"/>
<text text-anchor="middle" x="61.5" y="-101.3" font-family="Times,serif" font-size="14.00" fill="#000000">Code generate</text>
</g>
<!-- Validate Module&#45;&gt;Code generate -->
<g id="edge5" class="edge">
<title>Validate Module&#45;&gt;Code generate</title>
<path fill="none" stroke="#000000" d="M61.5,-173.9735C61.5,-162.1918 61.5,-146.5607 61.5,-133.1581"/>
<polygon fill="#000000" stroke="#000000" points="65.0001,-133.0033 61.5,-123.0034 58.0001,-133.0034 65.0001,-133.0033"/>
<text text-anchor="middle" x="105" y="-144.8" font-family="Times,serif" font-size="14.00" fill="#000000"> &#160;WasmModule</text>
</g>
<!-- input -->
<!-- Remove comments -->
<g id="node4" class="node">
<title>Remove comments</title>
<polygon fill="none" stroke="#000000" points="123,-471 0,-471 0,-435 123,-435 123,-471"/>
<text text-anchor="middle" x="61.5" y="-449.3" font-family="Times,serif" font-size="14.00" fill="#000000">Remove comments</text>
</g>
<!-- input&#45;&gt;Remove comments -->
<g id="edge1" class="edge">
<title>input&#45;&gt;Remove comments</title>
<path fill="none" stroke="#000000" d="M61.5,-521.9735C61.5,-510.1918 61.5,-494.5607 61.5,-481.1581"/>
<polygon fill="#000000" stroke="#000000" points="65.0001,-481.0033 61.5,-471.0034 58.0001,-481.0034 65.0001,-481.0033"/>
<text text-anchor="middle" x="106.5" y="-492.8" font-family="Times,serif" font-size="14.00" fill="#000000"> &#160;Wasm text file</text>
</g>
<!-- output -->
<!-- Parse module -->
<g id="node5" class="node">
<title>Parse module</title>
<polygon fill="none" stroke="#000000" points="107,-384 16,-384 16,-348 107,-348 107,-384"/>
<text text-anchor="middle" x="61.5" y="-362.3" font-family="Times,serif" font-size="14.00" fill="#000000">Parse module</text>
</g>
<!-- Remove comments&#45;&gt;Parse module -->
<g id="edge2" class="edge">
<title>Remove comments&#45;&gt;Parse module</title>
<path fill="none" stroke="#000000" d="M61.5,-434.9735C61.5,-423.1918 61.5,-407.5607 61.5,-394.1581"/>
<polygon fill="#000000" stroke="#000000" points="65.0001,-394.0033 61.5,-384.0034 58.0001,-394.0034 65.0001,-394.0033"/>
<text text-anchor="middle" x="96.5" y="-405.8" font-family="Times,serif" font-size="14.00" fill="#000000"> &#160;Char Array</text>
</g>
<!-- Compose module -->
<g id="node6" class="node">
<title>Compose module</title>
<polygon fill="none" stroke="#000000" points="118,-297 5,-297 5,-261 118,-261 118,-297"/>
<text text-anchor="middle" x="61.5" y="-275.3" font-family="Times,serif" font-size="14.00" fill="#000000">Compose module</text>
</g>
<!-- Parse module&#45;&gt;Compose module -->
<g id="edge3" class="edge">
<title>Parse module&#45;&gt;Compose module</title>
<path fill="none" stroke="#000000" d="M61.5,-347.9735C61.5,-336.1918 61.5,-320.5607 61.5,-307.1581"/>
<polygon fill="#000000" stroke="#000000" points="65.0001,-307.0033 61.5,-297.0034 58.0001,-307.0034 65.0001,-307.0033"/>
<text text-anchor="middle" x="113.5" y="-318.8" font-family="Times,serif" font-size="14.00" fill="#000000"> &#160;Blocks &amp; Tokens</text>
</g>
<!-- Compose module&#45;&gt;Validate Module -->
<g id="edge4" class="edge">
<title>Compose module&#45;&gt;Validate Module</title>
<path fill="none" stroke="#000000" d="M61.5,-260.9735C61.5,-249.1918 61.5,-233.5607 61.5,-220.1581"/>
<polygon fill="#000000" stroke="#000000" points="65.0001,-220.0033 61.5,-210.0034 58.0001,-220.0034 65.0001,-220.0033"/>
<text text-anchor="middle" x="105" y="-231.8" font-family="Times,serif" font-size="14.00" fill="#000000"> &#160;WasmModule</text>
</g>
<!-- Code generate&#45;&gt;output -->
<g id="edge6" class="edge">
<title>Code generate&#45;&gt;output</title>
<path fill="none" stroke="#000000" d="M61.5,-86.9735C61.5,-75.1918 61.5,-59.5607 61.5,-46.1581"/>
<polygon fill="#000000" stroke="#000000" points="65.0001,-46.0033 61.5,-36.0034 58.0001,-46.0034 65.0001,-46.0033"/>
<text text-anchor="middle" x="113.5" y="-57.8" font-family="Times,serif" font-size="14.00" fill="#000000"> &#160;Wasm binary file</text>
</g>
</g>
</svg>
